<svg id="visual" viewBox="0 0 900 600" width="900" height="600" xmlns="http://www.w3.org/2000/svg" xmlns:xlink="http://www.w3.org/1999/xlink" version="1.1"><path d="M0 449L16.7 455.8C33.3 462.7 66.7 476.3 100 484.3C133.3 492.3 166.7 494.7 200 498.2C233.3 501.7 266.7 506.3 300 503C333.3 499.7 366.7 488.3 400 483.3C433.3 478.3 466.7 479.7 500 482.5C533.3 485.3 566.7 489.7 600 493.8C633.3 498 666.7 502 700 504.7C733.3 507.3 766.7 508.7 800 500.2C833.3 491.7 866.7 473.3 883.3 464.2L900 455L900 601L883.3 601C866.7 601 833.3 601 800 601C766.7 601 733.3 601 700 601C666.7 601 633.3 601 600 601C566.7 601 533.3 601 500 601C466.7 601 433.3 601 400 601C366.7 601 333.3 601 300 601C266.7 601 233.3 601 200 601C166.7 601 133.3 601 100 601C66.7 601 33.3 601 16.7 601L0 601Z" fill="#4f61a4"></path><path d="M0 512L16.7 507.8C33.3 503.7 66.7 495.3 100 497.5C133.3 499.7 166.7 512.3 200 516.7C233.3 521 266.7 517 300 517.5C333.3 518 366.7 523 400 524.3C433.3 525.7 466.7 523.3 500 523.5C533.3 523.7 566.7 526.3 600 524.3C633.3 522.3 666.7 515.7 700 510.5C733.3 505.3 766.7 501.7 800 498C833.3 494.3 866.7 490.7 883.3 488.8L900 487L900 601L883.3 601C866.7 601 833.3 601 800 601C766.7 601 733.3 601 700 601C666.7 601 633.3 601 600 601C566.7 601 533.3 601 500 601C466.7 601 433.3 601 400 601C366.7 601 333.3 601 300 601C266.7 601 233.3 601 200 601C166.7 601 133.3 601 100 601C66.7 601 33.3 601 16.7 601L0 601Z" fill="#4155a5"></path><path d="M0 516L16.7 519.8C33.3 523.7 66.7 531.3 100 531.2C133.3 531 166.7 523 200 519.3C233.3 515.7 266.7 516.3 300 518.3C333.3 520.3 366.7 523.7 400 528C433.3 532.3 466.7 537.7 500 541.7C533.3 545.7 566.7 548.3 600 544.8C633.3 541.3 666.7 531.7 700 526.7C733.3 521.7 766.7 521.3 800 525.7C833.3 530 866.7 539 883.3 543.5L900 548L900 601L883.3 601C866.7 601 833.3 601 800 601C766.7 601 733.3 601 700 601C666.7 601 633.3 601 600 601C566.7 601 533.3 601 500 601C466.7 601 433.3 601 400 601C366.7 601 333.3 601 300 601C266.7 601 233.3 601 200 601C166.7 601 133.3 601 100 601C66.7 601 33.3 601 16.7 601L0 601Z" fill="#3249a5"></path><path d="M0 529L16.7 528.3C33.3 527.7 66.7 526.3 100 527.3C133.3 528.3 166.7 531.7 200 537C233.3 542.3 266.7 549.7 300 551.5C333.3 553.3 366.7 549.7 400 551.2C433.3 552.7 466.7 559.3 500 561.2C533.3 563 566.7 560 600 554.2C633.3 548.3 666.7 539.7 700 535.5C733.3 531.3 766.7 531.7 800 532.3C833.3 533 866.7 534 883.3 534.5L900 535L900 601L883.3 601C866.7 601 833.3 601 800 601C766.7 601 733.3 601 700 601C666.7 601 633.3 601 600 601C566.7 601 533.3 601 500 601C466.7 601 433.3 601 400 601C366.7 601 333.3 601 300 601C266.7 601 233.3 601 200 601C166.7 601 133.3 601 100 601C66.7 601 33.3 601 16.7 601L0 601Z" fill="#233ca4"></path><path d="M0 569L16.7 567.7C33.3 566.3 66.7 563.7 100 563C133.3 562.3 166.7 563.7 200 567C233.3 570.3 266.7 575.7 300 574.2C333.3 572.7 366.7 564.3 400 560.7C433.3 557 466.7 558 500 562.3C533.3 566.7 566.7 574.3 600 577.2C633.3 580 666.7 578 700 576C733.3 574 766.7 572 800 568.5C833.3 565 866.7 560 883.3 557.5L900 555L900 601L883.3 601C866.7 601 833.3 601 800 601C766.7 601 733.3 601 700 601C666.7 601 633.3 601 600 601C566.7 601 533.3 601 500 601C466.7 601 433.3 601 400 601C366.7 601 333.3 601 300 601C266.7 601 233.3 601 200 601C166.7 601 133.3 601 100 601C66.7 601 33.3 601 16.7 601L0 601Z" fill="#102fa3"></path></svg>